HIERARCHY
ROOT Hips
{
	OFFSET 0.000000 0.000000 0.000000
	CHANNELS 6 Xposition Yposition Zposition Xrotation Yrotation Zrotation
	JOINT LeftUpLeg_virtual
	{
		OFFSET 0.000000 0.000000 0.000000
		CHANNELS 3 Xrotation Yrotation Zrotation
		JOINT LeftUpLeg
		{
			OFFSET 11.394100 -6.187798 -0.413800
			CHANNELS 3 Xrotation Yrotation Zrotation
			JOINT LeftLeg
			{
				OFFSET 0.430247 -32.302673 3.732800
				CHANNELS 3 Xrotation Yrotation Zrotation
				JOINT LeftFoot
				{
					OFFSET -0.430247 -48.264931 -6.423300
					CHANNELS 3 Xrotation Yrotation Zrotation
					JOINT LeftToeBase
					{
						OFFSET 4.230900 -16.068199 23.438400
						CHANNELS 3 Xrotation Yrotation Zrotation
						JOINT LeftToe_End
						{
							OFFSET 4.510700 0.695400 19.974600
							CHANNELS 3 Xrotation Yrotation Zrotation
							End Site
							{
								OFFSET 0 0 0
							}
						}
					}
				}
			}
		}
	}
	JOINT RightUpLeg_virtual
	{
		OFFSET 0.000000 0.000000 0.000000
		CHANNELS 3 Xrotation Yrotation Zrotation
		JOINT RightUpLeg
		{
			OFFSET -11.333700 -6.187798 -0.413800
			CHANNELS 3 Xrotation Yrotation Zrotation
			JOINT RightLeg
			{
				OFFSET -0.430392 -32.302628 3.733000
				CHANNELS 3 Xrotation Yrotation Zrotation
				JOINT RightFoot
				{
					OFFSET 0.430392 -48.264973 -6.423500
					CHANNELS 3 Xrotation Yrotation Zrotation
					JOINT RightToeBase
					{
						OFFSET -4.230900 -16.068199 23.438400
						CHANNELS 3 Xrotation Yrotation Zrotation
						JOINT RightToe_End
						{
							OFFSET -4.510700 0.695400 19.974600
							CHANNELS 3 Xrotation Yrotation Zrotation
							End Site
							{
								OFFSET 0 0 0
							}
						}
					}
				}
			}
		}
	}
	JOINT Spine_virtual
	{
		OFFSET 0.000000 0.000000 0.000000
		CHANNELS 3 Xrotation Yrotation Zrotation
		JOINT Spine
		{
			OFFSET -0.002400 12.777504 0.315300
			CHANNELS 3 Xrotation Yrotation Zrotation
			JOINT Spine1
			{
				OFFSET -0.002067 5.816869 0.032633
				CHANNELS 3 Xrotation Yrotation Zrotation
				JOINT Spine1_split
				{
					OFFSET -0.002067 5.816869 0.032633
					CHANNELS 3 Xrotation Yrotation Zrotation
					JOINT Spine2
					{
						OFFSET -0.002067 5.816869 0.032633
						CHANNELS 3 Xrotation Yrotation Zrotation
						JOINT Neck_virtual
						{
							OFFSET 0.000000 0.000000 0.000000
							CHANNELS 3 Xrotation Yrotation Zrotation
							JOINT Neck
							{
								OFFSET -0.003700 21.199493 -0.826900
								CHANNELS 3 Xrotation Yrotation Zrotation
								JOINT Head
								{
									OFFSET 0.000000 20.442200 4.834800
									CHANNELS 3 Xrotation Yrotation Zrotation
									JOINT HeadTop_End
									{
										OFFSET 0.000000 34.668396 4.968400
										CHANNELS 3 Xrotation Yrotation Zrotation
										End Site
										{
											OFFSET 0 0 0
										}
									}
								}
							}
						}
						JOINT LeftShoulder_virtual
						{
							OFFSET 0.000000 0.000000 0.000000
							CHANNELS 3 Xrotation Yrotation Zrotation
							JOINT LeftShoulder
							{
								OFFSET 3.288150 8.794197 -1.372250
								CHANNELS 3 Xrotation Yrotation Zrotation
								JOINT LeftShoulder_split
								{
									OFFSET 3.288150 8.794197 -1.372250
									CHANNELS 3 Xrotation Yrotation Zrotation
									JOINT LeftArm
									{
										OFFSET 11.953299 -2.279007 -0.146200
										CHANNELS 3 Xrotation Yrotation Zrotation
										JOINT LeftForeArm
										{
											OFFSET 18.448900 0.000000 0.000000
											CHANNELS 3 Xrotation Yrotation Zrotation
											JOINT LeftHand
											{
												OFFSET 29.527798 0.000000 0.000000
												CHANNELS 3 Xrotation Yrotation Zrotation
												End Site
												{
													OFFSET 0 0 0
												}
											}
										}
									}
								}
							}
						}
						JOINT RightShoulder_virtual
						{
							OFFSET 0.000000 0.000000 0.000000
							CHANNELS 3 Xrotation Yrotation Zrotation
							JOINT RightShoulder
							{
								OFFSET -3.249400 8.794197 -1.372250
								CHANNELS 3 Xrotation Yrotation Zrotation
								JOINT RightShoulder_split
								{
									OFFSET -3.249400 8.794197 -1.372250
									CHANNELS 3 Xrotation Yrotation Zrotation
									JOINT RightArm
									{
										OFFSET -11.953299 -2.279007 -0.146200
										CHANNELS 3 Xrotation Yrotation Zrotation
										JOINT RightForeArm
										{
											OFFSET -18.448900 0.000000 0.000000
											CHANNELS 3 Xrotation Yrotation Zrotation
											JOINT RightHand
											{
												OFFSET -29.527802 0.000000 0.000000
												CHANNELS 3 Xrotation Yrotation Zrotation
												End Site
												{
													OFFSET 0 0 0
												}
											}
										}
									}
								}
							}
						}
					}
				}
			}
		}
	}
}
MOTION
Frames: 6
Frame Time: 0.03333333
-13.912754 80.144089 -2.624756 0.000000 0.000000 0.000000 -7.237593 -47.017663 1.962447 -29.086159 7.691150 21.678319 49.607497 -8.055371 11.179342 -17.388273 -10.188973 -23.347383 -4.980718 0.350178 -0.849459 0.000000 0.000000 0.000000 -8.556170 -43.852673 2.517945 -32.586740 -4.040544 -32.854036 50.474285 -2.809678 -5.998501 -7.129165 -9.571692 29.773980 -2.600585 -0.055540 -0.989186 0.000000 0.000000 0.000000 -6.256359 -43.644147 3.142465 9.744387 6.765257 -1.946313 2.240048 0.576335 -2.241510 0.583068 -1.305794 0.752196 0.000000 0.000000 0.000000 2.824621 0.387427 -1.968991 1.068027 13.212134 1.921095 11.074066 17.198649 0.629254 0.000000 0.000000 0.000000 3.058281 0.280640 -2.320771 1.903006 -2.773408 -13.226713 -1.810228 -1.991153 0.427027 -68.891501 -0.603969 -39.959352 178.614105 -75.792178 179.756727 0.000000 0.000000 0.000000 3.782112 0.478779 -2.056686 3.413673 11.269889 -12.567052 -2.514803 -0.080245 0.729404 -66.027316 20.712067 88.115656 -19.518034 84.872142 17.305234 0.000000 0.000000 0.000000 
-15.155158 80.593262 -2.986286 0.000000 0.000000 0.000000 -7.893581 -48.411811 1.584634 -28.359417 6.499401 22.000908 49.809305 -7.410751 11.420717 -14.306663 -9.614619 -22.637065 -6.185283 0.543223 -2.398679 0.000000 0.000000 0.000000 -9.394083 -44.508135 2.114405 -32.373249 -5.139221 -32.834195 51.905404 -3.321894 -5.633704 -9.786529 -9.347332 28.787970 -1.139866 0.028055 -0.066149 0.000000 0.000000 0.000000 -6.950453 -44.317208 2.975290 9.686879 6.479521 -1.972042 2.240437 0.112130 -2.354407 0.625576 -0.935152 0.919695 0.000000 0.000000 0.000000 2.794349 -0.123846 -2.061777 1.511612 13.297353 1.843399 11.402772 17.596360 -0.208409 0.000000 0.000000 0.000000 3.076252 -0.204255 -2.409231 1.992332 -1.503859 -12.856746 -1.540734 -2.014709 0.566082 -68.454833 -1.145839 -41.400826 178.908008 -74.781446 -179.749870 0.000000 0.000000 0.000000 3.757550 -0.011533 -2.165678 3.319076 10.401794 -13.397194 -2.234147 -0.003317 0.529335 -66.807965 19.493203 88.443423 -22.397698 85.275076 20.029298 0.000000 0.000000 0.000000 
-16.334932 81.573036 -3.178932 0.000000 0.000000 0.000000 -8.330389 -49.061385 1.306193 -28.286962 5.493603 22.190450 50.043860 -7.140361 11.493772 -10.072672 -9.988279 -22.208271 -9.519358 0.673179 -3.253992 0.000000 0.000000 0.000000 -10.061444 -45.116323 1.776029 -32.000140 -6.593854 -32.692157 52.797485 -3.821169 -5.198379 -12.035984 -8.927253 27.714082 -0.119572 0.247519 0.208678 0.000000 0.000000 0.000000 -7.203092 -44.882256 2.897313 9.484909 6.205052 -1.869380 2.163376 -0.369679 -2.412682 0.584869 -0.554305 0.889889 0.000000 0.000000 0.000000 2.730150 -0.614304 -2.100465 1.731352 13.356248 2.004862 11.485743 18.163642 -1.221753 0.000000 0.000000 0.000000 3.055516 -0.665101 -2.443295 2.046433 -0.815057 -12.443076 -1.106489 -1.707329 0.479572 -66.819966 -1.702771 -42.992257 179.279994 -73.880326 -179.318434 0.000000 0.000000 0.000000 3.649855 -0.477357 -2.211951 3.189637 9.447474 -13.757307 -1.939106 -0.066689 0.286349 -67.566383 18.071448 88.929261 -34.627410 86.859570 32.198693 0.000000 0.000000 0.000000 
-17.451427 82.775757 -3.211639 0.000000 0.000000 0.000000 -8.457022 -49.014001 1.255686 -28.713173 5.392460 22.008237 50.049441 -6.868470 11.120170 -6.629793 -10.920667 -21.502697 -13.453494 0.660100 -3.243506 0.000000 0.000000 0.000000 -10.417919 -45.665432 1.586724 -31.423979 -8.032909 -32.436606 52.692970 -4.051806 -4.922372 -13.116119 -8.225554 27.337868 -0.508342 0.470236 -0.068601 0.000000 0.000000 0.000000 -7.066529 -45.297784 2.964049 9.211658 6.024892 -1.676258 2.036022 -0.726799 -2.419648 0.504600 -0.267492 0.777533 0.000000 0.000000 0.000000 2.667772 -0.940301 -2.109008 1.666142 13.356982 2.332511 11.197824 18.754195 -2.242094 0.000000 0.000000 0.000000 2.994717 -0.967174 -2.433198 2.051230 -0.731933 -12.164205 -0.649353 -1.223304 0.137700 -63.872193 -2.245080 -44.520788 179.655968 -73.248205 -179.021649 0.000000 0.000000 0.000000 3.511945 -0.791034 -2.215185 3.031470 8.504864 -13.472792 -1.679113 -0.324864 0.078512 -67.443713 17.044170 89.318356 -105.331134 88.310781 102.975887 0.000000 0.000000 0.000000 
-18.496012 83.953339 -3.087879 0.000000 0.000000 0.000000 -8.321420 -48.493971 1.412138 -29.694237 6.180068 21.411045 50.186437 -6.642651 10.418983 -5.003012 -12.090689 -20.704836 -15.456457 0.415241 -2.491873 0.000000 0.000000 0.000000 -10.250425 -46.072966 1.665093 -30.438659 -9.323703 -31.844295 51.580619 -4.215946 -4.868955 -13.472655 -7.720085 27.118537 -1.272737 0.592149 -0.524638 0.000000 0.000000 0.000000 -6.621677 -45.525396 3.135871 8.970663 5.968366 -1.457914 1.877832 -0.852078 -2.356897 0.394886 -0.095501 0.628849 0.000000 0.000000 0.000000 2.611920 -1.015966 -2.083335 1.277043 13.268724 2.691223 10.597692 19.244743 -3.165757 0.000000 0.000000 0.000000 2.897475 -1.029440 -2.367591 2.016162 -1.174278 -12.079229 -0.414529 -0.646070 -0.158775 -59.779489 -2.524690 -45.698890 -179.805071 -72.967683 -178.628366 0.000000 0.000000 0.000000 3.384878 -0.867182 -2.149881 2.886922 7.748803 -12.551788 -1.481084 -0.579264 -0.059287 -66.057628 16.816247 89.437011 -162.223208 85.649903 160.084157 0.000000 0.000000 0.000000 
-19.510319 84.774635 -2.814022 0.000000 0.000000 0.000000 -7.922427 -47.871109 1.712062 -31.275037 7.450010 20.479219 50.772133 -6.620753 9.560200 -5.233563 -13.290871 -20.144089 -14.194157 -0.007589 -1.139846 0.000000 0.000000 0.000000 -9.634319 -46.255018 1.966421 -29.157996 -10.327666 -30.917845 49.980739 -4.519316 -4.920651 -14.090917 -7.763071 26.354978 -1.050062 0.588525 -0.783679 0.000000 0.000000 0.000000 -5.979943 -45.640403 3.358425 8.819361 6.065742 -1.263544 1.715763 -0.707592 -2.197627 0.383700 -0.099923 0.500746 0.000000 0.000000 0.000000 2.530253 -0.815165 -1.978105 0.682964 13.100047 2.929823 9.779662 19.540690 -3.876089 0.000000 0.000000 0.000000 2.771710 -0.833488 -2.222383 1.954577 -1.862382 -12.066892 -0.349037 -0.147492 -0.264285 -55.400880 -2.319672 -46.456027 -179.295594 -73.103617 -178.284111 0.000000 0.000000 0.000000 3.305909 -0.662338 -2.002424 2.815950 7.374054 -11.148558 -1.481934 -0.809012 -0.028385 -63.455531 17.692259 89.228799 -172.846502 82.211872 171.018757 0.000000 0.000000 0.000000 
